<svg xmlns="http://www.w3.org/2000/svg" width="430" height="430" style="width:100%;height:100%;transform:translate3d(0,0,0);content-visibility:visible" viewBox="0 0 430 430"><defs><clipPath id="c"><path d="M0 0h430v430H0z"/></clipPath><clipPath id="k"><path d="M0 0h430v430H0z"/></clipPath><clipPath id="l"><path d="M0 0h430v430H0z"/></clipPath><clipPath id="j"><path d="M0 0h430v430H0z"/></clipPath><clipPath id="g"><path d="M0 0h430v430H0z"/></clipPath><clipPath id="i"><path d="M0 0h430v430H0z"/></clipPath><clipPath id="h"><path d="M0 0h430v430H0z"/></clipPath><clipPath id="f"><path d="M0 0h430v430H0z"/></clipPath><clipPath id="d"><path d="M0 0h430v430H0z"/></clipPath><filter id="a" width="100%" height="100%" x="0%" y="0%" filterUnits="objectBoundingBox"><feComponentTransfer in="SourceGraphic"><feFuncA tableValues="1.0 0.0" type="table"/></feComponentTransfer></filter><path id="b" style="display:none"/><mask id="e" mask-type="alpha" maskUnits="userSpaceOnUse"><g filter="url(#a)"><path fill="#fff" d="M0 0h430v430H0z" opacity="0"/><use xmlns:ns1="http://www.w3.org/1999/xlink" ns1:href="#b"/></g></mask></defs><g clip-path="url(#c)"><g clip-path="url(#d)" style="display:none"><g mask="url(#e)" style="display:none"><path fill="none" class="primary"/></g><g fill="none" style="display:none"><path class="secondary"/><path class="primary"/></g><path fill="none" class="primary" style="display:none"/></g><g fill="none" clip-path="url(#f)" style="display:none"><g style="display:none"><path class="secondary"/><path class="primary"/></g><g style="display:none"><path class="primary"/><path class="primary"/></g></g><g fill="none" clip-path="url(#g)" style="display:none"><g clip-path="url(#h)" style="display:none"><path class="primary" style="display:none"/><path class="primary" style="display:none"/><path class="primary" style="display:none"/><path class="primary" style="display:none"/></g><g clip-path="url(#i)" style="display:none"><path class="primary" style="display:none"/><path class="primary" style="display:none"/><path class="primary" style="display:none"/><path class="primary" style="display:none"/></g></g><g fill="none" stroke="#FFF" stroke-linejoin="round" stroke-width="12" clip-path="url(#j)" style="display:block"><path d="M168 0c0 11.506-1.157 22.741-3.36 33.597l-.001.003C149.073 110.283 81.277 168 0 168c-92.784 0-168-75.216-168-168S-92.784-168 0-168c41.32 0 79.156 14.917 108.416 39.66L55.039-74.226C39.665-85.644 20.621-92.4 0-92.4c-51.031 0-92.4 41.369-92.4 92.4S-51.031 92.4 0 92.4c39.177 0 72.66-24.382 86.101-58.8H13.44v-67.2h151.2v.003A168.8 168.8 0 0 1 168 0z" class="primary" style="display:block" transform="translate(215 215)"/><path stroke-linecap="round" d="M128.511 103.365 74.708 49.561m-201.921 6.193 60.057-50.393m-61.355-108.726 60.449 50.724" class="primary" style="display:block" transform="translate(194.864 240.01)"/></g><g clip-path="url(#k)" style="display:none"><g fill="none" clip-path="url(#l)" style="display:none"><path class="primary" style="display:none"/><path class="primary" style="display:none"/><path class="primary" style="display:none"/><path class="primary" style="display:none"/></g></g></g></svg>